<?xml version="1.0" standalone="no"?>
<!DOCTYPE svg PUBLIC "-//W3C//DTD SVG 20010904//EN"
 "http://www.w3.org/TR/2001/REC-SVG-20010904/DTD/svg10.dtd">
<svg version="1.0" xmlns="http://www.w3.org/2000/svg"
 width="435.000000pt" height="139.000000pt" viewBox="0 0 435.000000 139.000000"
 preserveAspectRatio="xMidYMid meet">

<g transform="translate(0.000000,139.000000) scale(0.100000,-0.100000)"
fill="#000000" stroke="none">
<path d="M1007 952 l-68 -69 23 -17 23 -17 -23 12 c-28 13 -28 12 -37 -23 -5
-20 -3 -27 12 -32 10 -3 -40 -3 -110 0 l-128 6 7 -29 c4 -15 15 -59 24 -98 11
-44 21 -69 29 -67 7 1 9 -2 6 -8 -7 -11 21 -50 36 -50 4 0 21 23 39 50 18 28
34 50 37 50 5 0 6 1 -94 -153 -46 -70 -83 -132 -83 -136 0 -8 86 -38 163 -56
15 -4 43 -4 63 0 29 5 35 10 31 26 -10 39 4 16 58 -91 30 -60 58 -110 61 -110
3 0 37 30 75 67 l70 67 -23 19 -23 18 23 -11 c29 -14 35 -9 36 31 l1 31 113
-4 c61 -2 112 -2 112 1 0 3 -10 48 -22 99 -16 68 -26 91 -36 87 -7 -3 -10 0
-7 6 7 10 -21 49 -36 49 -4 0 -21 -22 -39 -50 -18 -28 -34 -50 -37 -50 -5 0
-8 -4 90 149 43 69 81 130 84 137 3 9 -23 21 -79 38 -46 14 -89 26 -96 26 -9
0 -12 -47 -12 -181 0 -176 1 -181 20 -176 11 3 20 4 20 2 0 -2 -45 -28 -100
-60 -55 -31 -98 -60 -95 -65 3 -4 -1 -10 -8 -13 -7 -3 -51 17 -97 45 -46 27
-89 50 -94 51 -7 1 -13 -27 -17 -68 -4 -46 -6 -9 -7 109 -2 173 -3 178 -22
173 -11 -3 -20 -4 -20 -2 0 1 48 29 106 61 l105 59 -38 6 -38 6 35 2 c37 2 38
0 -17 39 -25 18 64 -31 162 -89 44 -26 83 -45 88 -42 4 2 7 36 7 75 0 68 -1
70 -22 64 -13 -3 -27 -6 -32 -6 -4 0 -6 -9 -3 -20 10 -40 -4 -18 -58 90 -30
61 -59 110 -63 110 -4 0 -38 -31 -75 -68z m-187 -307 c0 -2 -10 -9 -22 -15
-22 -11 -22 -10 -4 4 21 17 26 19 26 11z m560 -110 c0 -2 -13 -11 -30 -20 -38
-19 -40 -11 -2 9 31 17 32 18 32 11z m-210 -221 c0 -2 -13 2 -30 11 -16 9 -30
18 -30 21 0 2 14 -2 30 -11 17 -9 30 -18 30 -21z"/>
<path d="M1602 830 c2 -50 7 -65 19 -68 12 -2 15 4 11 27 -3 23 2 36 22 56 15
15 32 25 38 23 15 -5 11 -107 -4 -125 -7 -9 -7 -13 1 -13 7 0 11 -24 11 -66 0
-57 -3 -67 -20 -71 -41 -11 -6 -23 66 -23 70 0 98 12 54 23 -17 4 -20 14 -20
65 0 34 5 64 10 67 8 5 8 11 0 20 -14 17 -9 117 7 122 22 8 53 -35 53 -72 0
-23 5 -35 14 -35 17 0 22 20 21 83 l0 48 -143 2 -143 2 3 -65z m137 -85 c0
-27 -3 -61 -7 -75 -6 -21 -8 -19 -12 20 -7 64 0 151 11 125 4 -11 8 -42 8 -70z"/>
<path d="M2283 885 c-42 -18 -59 -62 -39 -106 21 -47 51 -79 73 -79 26 0 63
-41 63 -68 0 -29 -40 -45 -75 -32 -23 9 -42 49 -37 78 4 18 -16 15 -26 -5 -12
-23 -12 -102 -1 -109 5 -3 15 -2 22 3 6 4 38 6 69 4 53 -3 60 0 88 27 42 42
40 79 -7 136 -21 24 -44 45 -51 45 -21 1 -62 49 -56 65 16 43 94 18 94 -30 0
-15 5 -24 12 -22 15 5 27 49 21 79 -4 22 -10 24 -63 25 -32 1 -71 -4 -87 -11z
m90 -178 c28 -21 37 -35 36 -55 -2 -23 -2 -24 -6 -5 -4 22 -56 73 -74 73 -12
0 -68 62 -69 76 0 7 17 -5 38 -25 21 -20 55 -49 75 -64z"/>
<path d="M2999 895 c-3 -3 -78 -5 -167 -6 -95 0 -162 -4 -162 -10 0 -5 7 -9
15 -9 8 0 15 -3 15 -7 0 -14 -52 -168 -60 -176 -4 -5 -20 29 -35 75 -16 45
-30 89 -33 96 -2 6 3 12 12 12 9 0 16 5 16 10 0 6 -32 10 -75 10 -43 0 -75 -4
-75 -10 0 -5 7 -10 15 -10 20 0 58 -87 52 -117 -2 -13 2 -24 10 -27 7 -3 30
-42 50 -86 20 -44 39 -80 43 -80 3 0 21 38 39 85 18 47 36 85 41 85 4 0 6 8 4
18 -3 9 4 40 15 67 17 46 22 50 55 53 l36 3 0 -58 c0 -33 -5 -64 -12 -71 -9
-9 -9 -12 0 -12 8 0 12 -22 12 -70 0 -56 -3 -70 -15 -70 -8 0 -15 -5 -15 -11
0 -8 35 -10 115 -8 71 3 116 0 119 -6 5 -15 26 7 31 35 5 27 -12 100 -23 100
-4 0 -14 -21 -22 -48 -15 -47 -15 -47 -60 -47 l-45 0 -3 54 c-2 35 1 57 9 62
18 11 39 -1 39 -22 0 -10 6 -19 14 -19 15 0 25 48 18 86 -5 30 -28 31 -35 3
-4 -13 -12 -20 -24 -17 -13 2 -19 14 -21 45 -3 36 1 44 22 59 24 15 28 15 51
0 14 -9 28 -30 32 -47 4 -24 8 -27 20 -18 9 8 13 28 11 57 -3 41 -15 61 -29
47z m-425 -169 c20 -49 34 -92 31 -94 -7 -8 -75 156 -75 181 0 18 7 4 44 -87z
m275 7 c-1 -66 -3 -79 -9 -53 -4 19 -9 40 -10 45 -4 12 10 95 16 95 2 0 3 -39
3 -87z"/>
<path d="M3195 892 c-60 -1 -114 -7 -119 -12 -7 -7 -2 -10 12 -10 20 0 22 -5
22 -58 0 -32 -5 -63 -12 -70 -9 -9 -9 -12 0 -12 8 0 12 -22 12 -70 0 -56 -3
-70 -15 -70 -8 0 -15 -5 -15 -11 0 -8 35 -10 115 -8 71 3 116 0 119 -6 5 -15
26 7 31 35 5 27 -12 100 -23 100 -4 0 -14 -21 -22 -48 -15 -47 -15 -47 -60
-47 l-45 0 -3 54 c-2 35 1 57 9 62 18 11 39 -1 39 -22 0 -10 6 -19 14 -19 15
0 25 48 18 86 -5 30 -28 31 -35 3 -4 -13 -12 -20 -24 -17 -13 2 -19 14 -21 45
-3 36 1 44 22 59 24 15 28 15 51 0 14 -9 28 -30 32 -47 4 -24 8 -27 20 -18 16
14 14 102 -2 103 -5 1 -59 0 -120 -2z m-46 -159 c-1 -66 -3 -79 -9 -53 -4 19
-9 40 -10 45 -4 12 10 95 16 95 2 0 3 -39 3 -87z"/>
<path d="M3450 893 c-36 -2 -69 -8 -74 -14 -6 -5 -2 -9 12 -9 20 0 22 -5 22
-58 0 -32 -5 -63 -12 -70 -9 -9 -9 -12 0 -12 8 0 12 -22 12 -70 0 -56 -3 -70
-15 -70 -8 0 -15 -4 -15 -10 0 -12 137 -13 144 -1 3 5 -3 11 -15 14 -18 5 -20
12 -17 59 2 39 7 54 19 56 24 4 49 -25 49 -58 0 -16 4 -40 10 -54 8 -23 15
-26 60 -26 54 0 62 8 30 28 -14 8 -20 23 -20 47 0 21 -8 43 -19 54 -17 17 -18
21 -5 32 9 7 22 25 30 41 13 25 13 32 -1 58 -30 57 -71 71 -195 63z m110 -42
c11 -22 13 -71 4 -95 -4 -10 -18 -16 -40 -16 l-34 0 0 53 c0 29 5 58 12 65 18
18 46 14 58 -7z m40 -36 c4 -33 0 -55 -7 -55 -5 0 -8 20 -8 45 0 43 11 50 15
10z m-151 -83 c-1 -77 -2 -82 -11 -47 -5 22 -8 49 -7 60 1 11 2 34 3 52 0 17
4 29 9 26 4 -2 6 -43 6 -91z m149 -103 c-3 -33 -4 -33 -8 8 -3 23 -2 39 3 34
5 -5 7 -24 5 -42z"/>
<path d="M1970 875 c0 -8 6 -14 13 -12 17 3 11 -56 -10 -96 -9 -18 -16 -39
-15 -47 1 -8 -6 -40 -16 -70 -14 -42 -24 -56 -41 -58 -12 -2 -19 -8 -16 -13 8
-12 115 -12 115 1 0 6 -6 10 -14 10 -20 0 -29 16 -21 40 5 17 15 20 65 20 51
0 58 -2 64 -22 9 -34 8 -38 -10 -38 -8 0 -12 -4 -9 -10 8 -12 132 -13 139 -1
3 5 -2 11 -12 13 -25 7 -71 126 -52 138 10 6 9 10 -3 17 -16 8 -47 82 -47 109
0 8 7 14 15 14 8 0 15 5 15 10 0 6 -33 10 -80 10 -64 0 -80 -3 -80 -15z m85
-123 c10 -34 16 -65 13 -68 -3 -3 -24 -4 -45 -2 l-40 3 21 72 c11 40 23 69 27
65 3 -4 14 -35 24 -70z m33 3 c28 -85 38 -147 12 -75 -31 82 -51 155 -41 145
5 -6 18 -37 29 -70z"/>
<path d="M1755 390 c0 -65 3 -80 15 -80 12 0 15 9 12 40 -4 36 -2 40 18 40 20
0 22 -4 18 -40 -3 -31 0 -40 12 -40 13 0 15 9 10 48 -5 43 -7 47 -32 47 -25
-1 -28 3 -28 32 0 20 -5 33 -12 33 -9 0 -13 -23 -13 -80z"/>
<path d="M3525 390 c0 -79 0 -80 25 -80 18 0 21 3 12 9 -10 6 -13 28 -10 80 2
58 0 71 -12 71 -12 0 -15 -16 -15 -80z"/>
<path d="M3150 450 c0 -5 7 -10 15 -10 8 0 15 5 15 10 0 6 -7 10 -15 10 -8 0
-15 -4 -15 -10z"/>
<path d="M2658 419 c-15 -8 -15 -23 -2 -86 3 -15 12 -23 24 -23 23 0 27 15 5
24 -19 7 -20 52 -1 63 11 6 11 10 2 19 -8 7 -19 8 -28 3z"/>
<path d="M1601 334 c-2 -67 0 -74 17 -74 15 0 18 5 15 24 -4 20 0 25 18 28 29
4 50 43 40 72 -6 16 -18 21 -48 23 l-40 2 -2 -75z m64 21 c0 -20 -6 -31 -17
-33 -15 -3 -18 4 -18 33 0 29 3 36 18 33 11 -2 17 -13 17 -33z"/>
<path d="M1915 360 c0 -47 2 -50 25 -50 18 0 21 3 12 9 -8 4 -13 21 -12 37 3
45 1 54 -13 54 -8 0 -12 -16 -12 -50z"/>
<path d="M1957 404 c-8 -8 1 -24 14 -24 5 0 9 7 9 15 0 15 -12 20 -23 9z"/>
<path d="M2040 400 c-12 -9 -10 -10 10 -8 33 4 41 -29 8 -34 -15 -2 -23 -10
-23 -23 0 -16 7 -20 38 -21 21 -1 40 3 43 7 3 5 1 9 -5 9 -5 0 -11 17 -13 38
-2 28 -8 38 -23 40 -11 1 -27 -3 -35 -8z m40 -60 c0 -5 -7 -10 -15 -10 -8 0
-15 5 -15 10 0 6 7 10 15 10 8 0 15 -4 15 -10z"/>
<path d="M2180 395 c-10 -12 -7 -19 14 -38 30 -28 32 -37 11 -37 -8 0 -15 5
-15 10 0 6 -4 10 -10 10 -5 0 -10 -7 -10 -16 0 -11 8 -14 33 -12 39 4 52 42
18 53 -12 3 -21 13 -21 21 0 17 12 18 28 2 9 -9 12 -8 12 5 0 21 -42 23 -60 2z"/>
<path d="M2312 398 c-15 -15 -16 -60 0 -76 14 -14 54 -16 63 -3 3 5 -7 11 -22
13 -17 2 -29 10 -31 21 -3 13 3 17 28 17 25 0 31 4 28 18 -4 21 -48 28 -66 10z
m43 -8 c3 -5 -3 -10 -15 -10 -12 0 -18 5 -15 10 3 6 10 10 15 10 5 0 12 -4 15
-10z"/>
<path d="M2443 393 c-4 -11 3 -24 21 -38 19 -15 24 -25 17 -30 -7 -4 -18 -1
-26 5 -12 10 -15 9 -15 -4 0 -21 43 -21 61 0 12 14 10 19 -14 38 -15 12 -27
25 -27 29 0 12 28 8 32 -5 3 -7 7 -6 11 5 5 14 0 17 -24 17 -18 0 -32 -6 -36
-17z"/>
<path d="M2773 398 c-15 -18 -18 -39 -9 -66 6 -19 14 -23 39 -20 59 6 64 89 5
96 -14 2 -30 -3 -35 -10z m47 -13 c17 -21 4 -67 -18 -63 -18 3 -28 39 -18 64
7 18 20 18 36 -1z"/>
<path d="M2995 334 c0 -72 1 -74 25 -73 14 0 19 3 13 6 -21 8 -15 43 7 43 30
0 55 45 42 75 -9 19 -18 24 -49 23 l-38 0 0 -74z m68 44 c7 -20 -11 -58 -28
-58 -11 0 -15 10 -15 35 0 28 4 35 19 35 10 0 21 -6 24 -12z"/>
<path d="M3152 369 c-1 -22 -4 -45 -8 -50 -3 -5 5 -9 18 -9 21 0 23 3 20 50
-5 62 -28 69 -30 9z"/>
<path d="M3255 390 c18 -20 18 -22 1 -50 -15 -27 -16 -30 -1 -30 9 0 14 4 11
9 -3 5 1 14 9 21 15 12 20 4 16 -22 0 -5 11 -8 26 -8 l26 0 -23 25 -23 25 23
25 23 25 -21 0 c-12 0 -21 -5 -19 -11 1 -6 -4 -14 -12 -17 -10 -3 -12 0 -8 12
5 12 0 16 -20 16 -26 0 -26 0 -8 -20z"/>
<path d="M3394 385 c-14 -21 -15 -31 -6 -50 12 -26 55 -35 67 -15 4 6 -5 10
-19 10 -19 0 -26 5 -26 20 0 16 7 20 31 20 24 0 30 3 25 16 -3 9 -6 18 -6 20
0 2 -11 4 -25 4 -15 0 -31 -10 -41 -25z m46 5 c0 -5 -7 -10 -16 -10 -8 0 -12
5 -9 10 3 6 10 10 16 10 5 0 9 -4 9 -10z"/>
<path d="M3627 403 c-15 -15 -5 -41 20 -52 19 -9 23 -15 15 -23 -8 -8 -15 -8
-27 2 -12 10 -15 10 -15 -4 0 -13 7 -17 28 -14 35 4 43 41 13 58 -12 6 -21 15
-21 20 0 14 27 12 33 -2 3 -8 6 -6 6 5 1 11 -6 17 -22 17 -13 0 -27 -3 -30 -7z"/>
</g>
</svg>
