<?xml version="1.0" encoding="UTF-8"?>
<!DOCTYPE svg PUBLIC "-//W3C//DTD SVG 1.1//EN" "http://www.w3.org/Graphics/SVG/1.1/DTD/svg11.dtd">
<svg xmlns="http://www.w3.org/2000/svg" version="1.1" width="128px" height="128px" style="shape-rendering:geometricPrecision; text-rendering:geometricPrecision; image-rendering:optimizeQuality; fill-rule:evenodd; clip-rule:evenodd" xmlns:xlink="http://www.w3.org/1999/xlink">
<g><path style="opacity:0.898" fill="#f2f269" d="M 63.5,12.5 C 64.3764,12.3691 65.0431,12.7025 65.5,13.5C 69.3333,20.5 73.1667,27.5 77,34.5C 79.7088,33.2078 82.5422,32.2078 85.5,31.5C 93.1185,33.5401 100.619,35.8734 108,38.5C 108.667,39.5 108.667,40.5 108,41.5C 103.957,47.7531 99.7905,53.9197 95.5,60C 98.2953,61.7932 100.795,63.9598 103,66.5C 105.153,74.4439 106.986,82.4439 108.5,90.5C 100.097,90.2822 91.7639,90.2822 83.5,90.5C 82.8942,94.0277 81.7275,97.361 80,100.5C 74.4054,105.383 68.9054,110.383 63.5,115.5C 59.0803,108.329 54.9136,100.996 51,93.5C 48.1651,94.4195 45.3318,95.4195 42.5,96.5C 35.5358,94.2343 28.5358,92.0676 21.5,90C 20.572,89.6121 19.9054,88.9454 19.5,88C 23.5782,81.1794 27.9115,74.5128 32.5,68C 29.628,65.4634 27.128,62.6301 25,59.5C 23.2366,52.279 21.4033,45.1123 19.5,38C 27.929,37.6383 36.2623,37.4716 44.5,37.5C 45.3674,34.0647 46.534,30.7314 48,27.5C 53.6699,22.9964 58.8365,17.9964 63.5,12.5 Z M 63.5,39.5 C 70.5655,43.6994 77.8988,47.3661 85.5,50.5C 85.1834,59.0851 85.5168,67.5851 86.5,76C 79.0444,80.1388 71.8778,84.6388 65,89.5C 57.9589,84.5638 50.4589,80.5638 42.5,77.5C 42.3336,68.8269 42.5002,60.1603 43,51.5C 49.9785,47.5996 56.8118,43.5996 63.5,39.5 Z"/></g>
</svg>
